<svg xmlns="http://www.w3.org/2000/svg" width="1280" height="640" viewBox="0 0 1280 640">
  <defs>
    <style type="text/css">
      .circle {
        fill: none;
        stroke: #E66A2C1C;
        stroke-miterlimit: 10;
        stroke-width: 10px;
        animation-name: rotationCircle;
        animation-duration: 10s;
        animation-iteration-count:infinite;
        animation-timing-function: linear;
        transform-origin:50% 50%;
      }

      .outer {
        fill: #FFFFFF1C;
        animation-name: rotationInner;
        animation-duration: 40s;
        animation-iteration-count:infinite;
        animation-timing-function: linear;
        transform-origin:50% 50%;
      }

      .inner {
        fill: #CCDB291C;
        animation-name: rotationOuter;
        animation-duration: 90s;
        animation-iteration-count:infinite;
        animation-timing-function: linear;
        transform-origin:50% 50%;
      }
      @keyframes rotationOuter {
        from {
          transform: rotate(0deg);
        }
        to {
          transform: rotate(360deg);
        }
      }
      @keyframes rotationInner {
        from {
          transform: rotate(0deg);
        }
        to {
          transform: rotate(-360deg);
        }
      }
      @keyframes rotationCircle {
        from {
          transform: rotateY(0deg);
        }
        to {
          transform: rotateY(360deg);
        }
      }

    </style>
  </defs>
  <g>
    <circle class="circle" cx="772.44" cy="321.72" r="363.44"/>
    <path class="outer" d="M963.75,249.33c1.33-18.14,1.85-38.2-.55-49.86-4.05-19.63-30-58.69-41.89-75.77-4.34-17.66-10-36.9-15.94-47.25-9.91-17.42-46.7-46.54-63.25-59.12-9.59-15.45-21-32-29.75-40-14.81-13.49-58.8-29.82-78.43-36.68-13.9-11.73-29.82-24-40.66-28.85-18.26-8.27-65.13-10.2-85.93-10.66-16.84-6.86-35.76-13.56-47.58-14.87-19.91-2.22-65.09,10.42-85,16.42-18.14-1.33-38.2-1.85-49.86.56-19.63,4-58.68,30-75.76,41.88-17.67,4.34-36.91,10.05-47.26,15.94C284.46-29,255.34,7.76,242.76,24.31c-15.45,9.59-32,21-40,29.75-13.49,14.81-29.82,58.8-36.68,78.43-11.73,13.9-23.95,29.82-28.85,40.66-8.26,18.26-10.2,65.13-10.66,85.93-6.86,16.84-13.55,35.76-14.87,47.58-2.22,19.91,10.42,65.09,16.42,85-1.33,18.14-1.85,38.2.56,49.86,4,19.63,30,58.69,41.88,75.77,4.34,17.66,10,36.9,15.94,47.25,9.91,17.42,46.7,46.54,63.25,59.12,9.59,15.45,21,32,29.75,40,14.81,13.49,58.8,29.82,78.43,36.68,13.9,11.73,29.82,23.95,40.66,28.85,18.26,8.27,65.13,10.2,85.93,10.66,16.84,6.86,35.76,13.56,47.58,14.87,19.91,2.22,65.09-10.42,85-16.42,18.14,1.33,38.2,1.85,49.86-.56,19.63-4,58.68-30,75.77-41.88,17.66-4.34,36.9-10,47.25-15.94,17.42-9.91,46.54-46.7,59.12-63.25,15.45-9.59,32-21,40-29.75,13.5-14.81,29.82-58.8,36.68-78.43,11.74-13.9,24-29.82,28.85-40.66,8.27-18.26,10.2-65.13,10.66-85.93,6.86-16.84,13.56-35.76,14.87-47.58C982.39,314.43,969.75,269.25,963.75,249.33ZM732.07,580.49l-19.68,86.43-69.78-41.63L597.2,701.41l-53.5-61.16L477,698.61l-32-74.7-81.49,34.88-7.33-80.92-88.28,8,18-79.23L199.51,487l41.63-69.78L165,371.76l61.16-53.49-58.36-66.72,74.7-32-34.88-81.49,80.92-7.33-8-88.28,79.23,18,19.68-86.43,69.78,41.63,45.42-76.12L548.16.75l66.72-58.36,32,74.7,81.49-34.88,7.33,80.92,88.28-8-18,79.23L892.35,154l-41.63,69.78,76.12,45.42-61.16,53.49L924,389.45l-74.7,32,34.88,81.49-80.92,7.33,8,88.28Z"/>
    <path class="inner" d="M761.24,415.94c4.63-13.58,18.39-57.74,12.27-86.54-.34-1.6-.71-3.22-1.08-4.83-.55-14.34-3.54-60.5-19.57-85.19-.89-1.38-1.81-2.75-2.74-4.12-5.65-13.2-25-55.22-48.79-72.52-1.33-1-2.68-1.92-4-2.87-10-10.29-43.11-42.6-71.55-50.22q-2.37-.63-4.79-1.23c-13-6-55.51-24.32-84.79-21.24-1.63.17-3.27.37-4.92.57-14.32-1-60.54-2.81-86.77,10.55q-2.19,1.13-4.39,2.3c-13.71,4.24-57.52,19.07-77.22,41q-1.65,1.83-3.27,3.71c-11.28,8.88-46.87,38.42-57.42,65.9-.59,1.54-1.16,3.09-1.73,4.65-7.35,12.32-30,52.66-30,82.1,0,1.64,0,3.29.06,4.95-2.45,14.14-9.13,59.91,1.42,87.4,1.72,4.47,3.61,9,5.58,13.41l-1.58-.24S289,462.1,313.81,487c1.16,1.16,2.35,2.32,3.54,3.46,8.27,11.74,35.91,48.82,62.81,60.79,1.5.67,3,1.32,4.54,2,11.93,8,51,32.7,80.42,34.25,1.64.08,3.29.15,4.95.2,14,3.18,59.36,12.25,87.35,3.15q2.34-.76,4.7-1.58c14.2-2.05,59.8-9.84,82.67-28.36q1.92-1.56,3.82-3.16c12.53-7,52.3-30.61,67-56.11q1.23-2.13,2.43-4.32c9.19-11,37.86-47.32,42.46-76.39C760.78,419.22,761,417.59,761.24,415.94ZM532.83,493l-27,37.73-28.62-43.41-38.75,25.54-11.15-50.77L382,472.06l7.78-51.4-54.62-8.27,33.14-51.81-39.09-25L371,304.73l-27.53-37.36,50.12-13.8-12.32-44.75L433,213.91l4.54-46.19L484.05,191l20.79-41.49,35.05,38.4,34.28-31.29,19,48.41,43.21-16.93.36,52,46.41-.32-18.3,48.66,43.44,16.34-34.53,38.87,34.7,30.82-46.16,23.92,21.35,41.21L632,445.37l5.16,46.13L586.8,478.38l-11.7,44.91Z"/>
  </g>
</svg>
